<?xml version="1.0" standalone="no"?>
<!DOCTYPE svg PUBLIC "-//W3C//DTD SVG 20010904//EN"
 "http://www.w3.org/TR/2001/REC-SVG-20010904/DTD/svg10.dtd">
<svg version="1.0" xmlns="http://www.w3.org/2000/svg"
 width="305.000000pt" height="305.000000pt" viewBox="0 0 305.000000 305.000000"
 preserveAspectRatio="xMidYMid meet">
<metadata>
Created by potrace 1.14, written by Peter Selinger 2001-2017
</metadata>
<g transform="translate(0.000000,305.000000) scale(0.100000,-0.100000)"
fill="#000000" stroke="none">
<path d="M1670 2871 c-19 -10 -48 -40 -65 -66 l-30 -48 -3 -561 c-2 -479 -1
-564 12 -581 14 -19 28 -20 413 -23 219 -2 421 0 450 3 70 9 112 39 146 104
l27 55 0 474 c0 331 -4 486 -12 513 -6 22 -26 57 -44 78 -62 72 -57 71 -481
71 -349 0 -381 -1 -413 -19z"/>
<path d="M736 2630 c-37 -12 -85 -56 -102 -97 -11 -26 -14 -115 -14 -433 0
-433 -1 -428 55 -480 l27 -25 355 -3 c322 -2 357 -1 374 14 18 16 19 40 19
463 0 619 33 571 -400 570 -157 0 -298 -5 -314 -9z"/>
<path d="M443 1410 c-22 -9 -23 -13 -23 -157 0 -127 4 -158 23 -214 29 -85 80
-168 137 -223 38 -37 842 -616 856 -616 2 0 4 267 4 594 l0 595 -22 15 c-20
14 -82 16 -488 15 -256 0 -475 -4 -487 -9z"/>
<path d="M1580 1401 c-12 -23 -14 -1055 -2 -1049 29 12 716 501 754 536 109
102 148 203 148 386 0 82 -4 126 -12 134 -9 9 -121 12 -445 12 -417 0 -433 -1
-443 -19z"/>
</g>
</svg>
